<mxfile host="Electron" modified="2024-02-13T21:12:15.911Z" agent="Mozilla/5.0 (Windows NT 10.0; Win64; x64) AppleWebKit/537.36 (KHTML, like Gecko) draw.io/21.2.8 Chrome/112.0.5615.165 Electron/24.2.0 Safari/537.36" etag="FNTbNAGLv5ZOvRVGffCd" version="21.2.8" type="device">
  <diagram name="Page-1" id="sLZeBrimJtro2HyK5LZe">
    <mxGraphModel dx="1036" dy="614" grid="1" gridSize="10" guides="1" tooltips="1" connect="1" arrows="1" fold="1" page="1" pageScale="1" pageWidth="1169" pageHeight="827" math="0" shadow="0">
      <root>
        <mxCell id="0" />
        <mxCell id="1" parent="0" />
        <mxCell id="ON8zbtTXN7hFOHAPclL6-1" value="Position" style="rounded=0;whiteSpace=wrap;html=1;" vertex="1" parent="1">
          <mxGeometry x="520" y="240" width="100" height="50" as="geometry" />
        </mxCell>
        <mxCell id="ON8zbtTXN7hFOHAPclL6-3" value="Clicked = True" style="rounded=0;whiteSpace=wrap;html=1;" vertex="1" parent="1">
          <mxGeometry x="300" y="400" width="100" height="50" as="geometry" />
        </mxCell>
        <mxCell id="ON8zbtTXN7hFOHAPclL6-6" value="" style="endArrow=none;html=1;rounded=0;entryX=0.25;entryY=1;entryDx=0;entryDy=0;" edge="1" parent="1" target="ON8zbtTXN7hFOHAPclL6-1">
          <mxGeometry width="50" height="50" relative="1" as="geometry">
            <mxPoint x="360" y="400" as="sourcePoint" />
            <mxPoint x="530" y="290" as="targetPoint" />
          </mxGeometry>
        </mxCell>
        <mxCell id="ON8zbtTXN7hFOHAPclL6-7" value="" style="endArrow=none;html=1;rounded=0;entryX=0.75;entryY=1;entryDx=0;entryDy=0;" edge="1" parent="1" target="ON8zbtTXN7hFOHAPclL6-1">
          <mxGeometry width="50" height="50" relative="1" as="geometry">
            <mxPoint x="780" y="400" as="sourcePoint" />
            <mxPoint x="615" y="310" as="targetPoint" />
          </mxGeometry>
        </mxCell>
        <mxCell id="ON8zbtTXN7hFOHAPclL6-8" value="False" style="rounded=0;whiteSpace=wrap;html=1;" vertex="1" parent="1">
          <mxGeometry x="730" y="400" width="100" height="50" as="geometry" />
        </mxCell>
        <mxCell id="ON8zbtTXN7hFOHAPclL6-9" value="Sound" style="rounded=0;whiteSpace=wrap;html=1;" vertex="1" parent="1">
          <mxGeometry x="530" y="400" width="100" height="50" as="geometry" />
        </mxCell>
        <mxCell id="ON8zbtTXN7hFOHAPclL6-10" value="" style="endArrow=none;html=1;rounded=0;entryX=0.25;entryY=1;entryDx=0;entryDy=0;exitX=0.5;exitY=0;exitDx=0;exitDy=0;" edge="1" parent="1" source="ON8zbtTXN7hFOHAPclL6-9">
          <mxGeometry width="50" height="50" relative="1" as="geometry">
            <mxPoint x="390" y="400" as="sourcePoint" />
            <mxPoint x="575" y="290" as="targetPoint" />
          </mxGeometry>
        </mxCell>
        <mxCell id="ON8zbtTXN7hFOHAPclL6-11" value="Top" style="text;html=1;align=center;verticalAlign=middle;resizable=0;points=[];autosize=1;strokeColor=none;fillColor=none;" vertex="1" parent="1">
          <mxGeometry x="670" y="308" width="40" height="30" as="geometry" />
        </mxCell>
        <mxCell id="ON8zbtTXN7hFOHAPclL6-12" value="Middle" style="text;html=1;align=center;verticalAlign=middle;resizable=0;points=[];autosize=1;strokeColor=none;fillColor=none;" vertex="1" parent="1">
          <mxGeometry x="580" y="338" width="60" height="30" as="geometry" />
        </mxCell>
        <mxCell id="ON8zbtTXN7hFOHAPclL6-13" value="Bottom" style="text;html=1;align=center;verticalAlign=middle;resizable=0;points=[];autosize=1;strokeColor=none;fillColor=none;" vertex="1" parent="1">
          <mxGeometry x="400" y="308" width="60" height="30" as="geometry" />
        </mxCell>
        <mxCell id="ON8zbtTXN7hFOHAPclL6-14" value="Clicked = False" style="rounded=0;whiteSpace=wrap;html=1;" vertex="1" parent="1">
          <mxGeometry x="430" y="560" width="100" height="50" as="geometry" />
        </mxCell>
        <mxCell id="ON8zbtTXN7hFOHAPclL6-16" value="" style="endArrow=none;html=1;rounded=0;entryX=0.25;entryY=1;entryDx=0;entryDy=0;exitX=0.5;exitY=0;exitDx=0;exitDy=0;" edge="1" parent="1" source="ON8zbtTXN7hFOHAPclL6-14">
          <mxGeometry width="50" height="50" relative="1" as="geometry">
            <mxPoint x="587" y="560" as="sourcePoint" />
            <mxPoint x="582" y="450" as="targetPoint" />
          </mxGeometry>
        </mxCell>
        <mxCell id="ON8zbtTXN7hFOHAPclL6-17" value="Clicked = True" style="rounded=0;whiteSpace=wrap;html=1;" vertex="1" parent="1">
          <mxGeometry x="630" y="550" width="100" height="50" as="geometry" />
        </mxCell>
        <mxCell id="ON8zbtTXN7hFOHAPclL6-18" value="Yes" style="text;html=1;align=center;verticalAlign=middle;resizable=0;points=[];autosize=1;strokeColor=none;fillColor=none;" vertex="1" parent="1">
          <mxGeometry x="490" y="488" width="40" height="30" as="geometry" />
        </mxCell>
        <mxCell id="ON8zbtTXN7hFOHAPclL6-19" value="" style="endArrow=none;html=1;rounded=0;" edge="1" parent="1">
          <mxGeometry width="50" height="50" relative="1" as="geometry">
            <mxPoint x="690" y="550" as="sourcePoint" />
            <mxPoint x="580" y="450" as="targetPoint" />
          </mxGeometry>
        </mxCell>
        <mxCell id="ON8zbtTXN7hFOHAPclL6-20" value="No" style="text;html=1;align=center;verticalAlign=middle;resizable=0;points=[];autosize=1;strokeColor=none;fillColor=none;" vertex="1" parent="1">
          <mxGeometry x="660" y="480" width="40" height="30" as="geometry" />
        </mxCell>
      </root>
    </mxGraphModel>
  </diagram>
</mxfile>
